<?xml version="1.0" encoding="utf-8"?>
<!-- Generator: Adobe Illustrator 21.0.0, SVG Export Plug-In . SVG Version: 6.00 Build 0)  -->
<svg version="1.1" id="Layer_1" xmlns="http://www.w3.org/2000/svg" xmlns:xlink="http://www.w3.org/1999/xlink" x="0px" y="0px"
	 viewBox="0 0 269.5 64.6" style="enable-background:new 0 0 269.5 64.6;" xml:space="preserve">
<style type="text/css">
	.st0{fill:#FFFFFF;}
	.st1{fill:#1C2574;}
	.st2{fill:#17A2B8;}
	.st3{fill:#130250;}
	.st4{fill:#01ACF1;}
</style>
<path class="st0" d="M55.7,24.3h7.4c1,0,2,0.2,2.9,0.7c0.9,0.5,1.6,1.1,2.1,1.9s0.8,1.7,0.8,2.7s-0.2,1.8-0.7,2.5
	c-0.5,0.7-1.1,1.3-1.9,1.6V34c1,0.3,1.8,0.9,2.4,1.7s0.9,1.8,0.9,2.8c0,1.1-0.3,2.1-0.8,2.9c-0.6,0.9-1.3,1.5-2.3,2
	c-0.9,0.5-2,0.7-3.1,0.7h-7.8L55.7,24.3L55.7,24.3z M63,32.6c0.9,0,1.6-0.3,2.1-0.8c0.5-0.6,0.8-1.2,0.8-1.9c0-0.7-0.3-1.3-0.8-1.9
	c-0.5-0.5-1.2-0.8-2.1-0.8h-4.3v5.5H63V32.6z M63.5,41.3c0.9,0,1.7-0.3,2.3-0.9c0.6-0.6,0.8-1.3,0.8-2c0-0.8-0.3-1.5-0.9-2.1
	s-1.4-0.9-2.3-0.9h-4.6v5.9H63.5z"/>
<path class="st1" d="M63.5,49.1h-7.8c-2.8,0-5-2.2-5-5V24.3c0-2.8,2.2-5,5-5h7.4c1.9,0,3.6,0.4,5.2,1.3c1.6,0.8,3,2.1,4,3.6
	c1.1,1.6,1.6,3.5,1.6,5.4c0,1.4-0.3,2.6-0.7,3.8c0.9,1.5,1.4,3.3,1.4,5.1c0,2.1-0.6,4-1.7,5.7c-1,1.6-2.5,2.8-4.2,3.7
	C67.2,48.7,65.4,49.1,63.5,49.1z"/>
<path class="st0" d="M81.8,43.6c-1.1-0.7-2-1.6-2.6-2.8s-0.9-2.6-0.9-4.2V24.3h3.1v12.4c0,1.5,0.4,2.6,1.1,3.6
	c0.8,0.9,1.9,1.4,3.3,1.4s2.5-0.4,3.3-1.4c0.8-0.9,1.1-2.1,1.1-3.6V24.3h3.1v12.2c0,1.6-0.3,3-0.9,4.2s-1.5,2.2-2.6,2.8
	c-1.1,0.7-2.4,1-4,1C84.3,44.6,83,44.2,81.8,43.6z"/>
<path class="st1" d="M85.8,49.6c-2.4,0-4.5-0.6-6.4-1.7l0,0c-2-1.2-3.5-2.8-4.6-4.9c-1-1.9-1.5-4.1-1.5-6.5V24.3c0-2.8,2.2-5,5-5
	h3.1c1.9,0,3.6,1.1,4.4,2.6c0.8-1.6,2.5-2.6,4.4-2.6h3.1c2.8,0,5,2.2,5,5v12.2c0,2.4-0.5,4.5-1.4,6.4c-1,2.1-2.6,3.7-4.5,4.9
	C90.4,49,88.2,49.6,85.8,49.6z M86.4,37.1L86.4,37.1L86.4,37.1z"/>
<path class="st0" d="M103,24.3h3.1v16.8h8.5v3H103V24.3z"/>
<path class="st1" d="M114.5,49.1H103c-2.8,0-5-2.2-5-5V24.3c0-2.8,2.2-5,5-5h3.1c2.8,0,5,2.2,5,5v11.8h3.5c2.8,0,5,2.2,5,5v3
	C119.5,46.9,117.3,49.1,114.5,49.1z"/>
<path class="st0" d="M126.1,43.6c-1.1-0.7-2-1.6-2.6-2.8s-0.9-2.6-0.9-4.2V24.3h3.1v12.4c0,1.5,0.4,2.6,1.1,3.6
	c0.8,0.9,1.9,1.4,3.3,1.4s2.5-0.4,3.3-1.4c0.8-0.9,1.1-2.1,1.1-3.6V24.3h3.1v12.2c0,1.6-0.3,3-0.9,4.2c-0.6,1.2-1.5,2.2-2.6,2.8
	c-1.1,0.7-2.4,1-4,1C128.6,44.6,127.3,44.2,126.1,43.6z"/>
<path class="st1" d="M130.1,49.6c-2.4,0-4.5-0.6-6.4-1.7l0,0c-2-1.2-3.5-2.8-4.6-4.9c-1-1.9-1.5-4.1-1.5-6.5V24.3c0-2.8,2.2-5,5-5
	h3.1c1.9,0,3.6,1.1,4.4,2.6c0.8-1.6,2.5-2.6,4.4-2.6h3.1c2.8,0,5,2.2,5,5v12.2c0,2.4-0.5,4.5-1.4,6.4c-1,2.1-2.6,3.7-4.5,4.9
	C134.7,49,132.5,49.6,130.1,49.6z M130.7,37.1L130.7,37.1L130.7,37.1z"/>
<path class="st0" d="M147.3,24.3h3.1v9.4h0.2l8-9.4h3.8v0.2l-7.2,8.3L163,44v0.2h-3.8l-6.2-8.9l-2.7,3.1v5.8h-3.1V24.3H147.3z"/>
<path class="st1" d="M163,49.1h-3.8c-1.6,0-3.2-0.8-4.1-2.1l-0.4-0.5c-0.8,1.6-2.5,2.7-4.4,2.7h-3.1c-2.8,0-5-2.2-5-5V24.3
	c0-2.8,2.2-5,5-5h3.1c1.7,0,3.2,0.8,4.1,2.1l0.3-0.4c1-1.1,2.3-1.8,3.8-1.8h3.8c2.8,0,5,2.2,5,5v0.2c0,1.2-0.4,2.4-1.2,3.3l-4.7,5.4
	L167,41c0.6,0.8,0.9,1.9,0.9,2.9v0.2C168,46.9,165.8,49.1,163,49.1z"/>
<path class="st0" d="M174.2,43.6c-1.1-0.7-2-1.6-2.6-2.8s-0.9-2.6-0.9-4.2V24.3h3.1v12.4c0,1.5,0.4,2.6,1.1,3.6
	c0.8,0.9,1.9,1.4,3.3,1.4c1.4,0,2.5-0.4,3.3-1.4c0.8-0.9,1.1-2.1,1.1-3.6V24.3h3.1v12.2c0,1.6-0.3,3-0.9,4.2
	c-0.6,1.2-1.5,2.2-2.6,2.8c-1.1,0.7-2.4,1-4,1C176.6,44.6,175.3,44.2,174.2,43.6z"/>
<path class="st1" d="M178.1,49.6c-2.4,0-4.5-0.6-6.4-1.7l0,0c-2-1.2-3.5-2.8-4.6-4.9c-1-1.9-1.5-4.1-1.5-6.5V24.3c0-2.8,2.2-5,5-5
	h3.1c1.9,0,3.6,1.1,4.4,2.6c0.8-1.6,2.5-2.6,4.4-2.6h3.1c2.8,0,5,2.2,5,5v12.2c0,2.4-0.5,4.5-1.4,6.4c-1,2.1-2.6,3.7-4.5,4.9
	C182.7,49,180.5,49.6,178.1,49.6z"/>
<path class="st0" d="M195.3,24.3h4.2l5.7,15h0.2l5.7-15h4.2v19.8h-3.1v-11l0.2-3.6h-0.2l-5.7,14.7H204l-5.7-14.7h-0.2l0.2,3.6v11.1
	h-3.1V24.3H195.3z"/>
<path class="st1" d="M215.3,49.1h-3.1c-1.1,0-2-0.3-2.8-0.9c-0.8,0.6-1.8,0.9-2.8,0.9H204c-1,0-2-0.3-2.8-0.9
	c-0.8,0.6-1.8,0.9-2.8,0.9h-3.1c-2.8,0-5-2.2-5-5V24.3c0-2.8,2.2-5,5-5h4.2c2.1,0,3.9,1.3,4.7,3.2l1.1,2.9l1.1-2.9
	c0.7-1.9,2.6-3.2,4.7-3.2h4.2c2.8,0,5,2.2,5,5v19.8C220.3,46.9,218,49.1,215.3,49.1z"/>
<path class="st0" d="M225.3,24.3h7.4c1,0,2,0.2,2.9,0.7s1.6,1.1,2.1,1.9s0.8,1.7,0.8,2.7s-0.2,1.8-0.7,2.5c-0.5,0.7-1.1,1.3-1.9,1.6
	V34c1,0.3,1.8,0.9,2.4,1.7c0.6,0.8,0.9,1.8,0.9,2.8c0,1.1-0.3,2.1-0.8,2.9c-0.6,0.9-1.3,1.5-2.3,2c-0.9,0.5-2,0.7-3.1,0.7h-7.8V24.3
	H225.3z M232.6,32.6c0.9,0,1.6-0.3,2.1-0.8c0.5-0.6,0.8-1.2,0.8-1.9c0-0.7-0.3-1.3-0.8-1.9c-0.5-0.5-1.2-0.8-2.1-0.8h-4.3v5.5h4.3
	V32.6z M233.1,41.3c0.9,0,1.7-0.3,2.3-0.9c0.6-0.6,0.8-1.3,0.8-2c0-0.8-0.3-1.5-0.9-2.1c-0.6-0.6-1.4-0.9-2.3-0.9h-4.6v5.9H233.1z"
	/>
<path class="st1" d="M233.1,49.1h-7.8c-2.8,0-5-2.2-5-5V24.3c0-2.8,2.2-5,5-5h7.4c1.9,0,3.6,0.4,5.2,1.3c1.6,0.8,3,2.1,4,3.6
	c1.1,1.6,1.6,3.5,1.6,5.4c0,1.4-0.3,2.6-0.7,3.8c0.9,1.5,1.4,3.3,1.4,5.1c0,2.1-0.6,4-1.7,5.7c-1,1.6-2.5,2.8-4.2,3.7
	C236.8,48.7,235,49.1,233.1,49.1z"/>
<path class="st0" d="M253.5,24.3h3.5l7.4,19.8H261l-1.8-5.1h-8l-1.8,5.1H246L253.5,24.3z M258.3,36.2l-2.1-5.9l-0.8-2.3h-0.2
	l-0.8,2.3l-2.1,5.9H258.3z"/>
<path class="st1" d="M264.5,49.1h-3.4c-2.1,0-4-1.3-4.7-3.3l-0.6-1.7h-0.9l-0.6,1.7c-0.7,2-2.6,3.3-4.7,3.3h-3.4
	c-1.6,0-3.2-0.8-4.1-2.2c-0.9-1.3-1.1-3.1-0.6-4.6l7.4-19.8c0.7-2,2.6-3.2,4.7-3.2h3.5c2.1,0,3.9,1.3,4.7,3.2l7.4,19.8
	c0.6,1.5,0.4,3.3-0.6,4.6C267.7,48.3,266.2,49.1,264.5,49.1z"/>
<path class="st0" d="M55.7,24.3h7.4c1,0,2,0.2,2.9,0.7c0.9,0.5,1.6,1.1,2.1,1.9s0.8,1.7,0.8,2.7s-0.2,1.8-0.7,2.5
	c-0.5,0.7-1.1,1.3-1.9,1.6V34c1,0.3,1.8,0.9,2.4,1.7s0.9,1.8,0.9,2.8c0,1.1-0.3,2.1-0.8,2.9c-0.6,0.9-1.3,1.5-2.3,2
	c-0.9,0.5-2,0.7-3.1,0.7h-7.8L55.7,24.3L55.7,24.3z M63,32.6c0.9,0,1.6-0.3,2.1-0.8c0.5-0.6,0.8-1.2,0.8-1.9c0-0.7-0.3-1.3-0.8-1.9
	c-0.5-0.5-1.2-0.8-2.1-0.8h-4.3v5.5H63V32.6z M63.5,41.3c0.9,0,1.7-0.3,2.3-0.9c0.6-0.6,0.8-1.3,0.8-2c0-0.8-0.3-1.5-0.9-2.1
	s-1.4-0.9-2.3-0.9h-4.6v5.9H63.5z"/>
<path class="st0" d="M81.8,43.6c-1.1-0.7-2-1.6-2.6-2.8s-0.9-2.6-0.9-4.2V24.3h3.1v12.4c0,1.5,0.4,2.6,1.1,3.6
	c0.8,0.9,1.9,1.4,3.3,1.4s2.5-0.4,3.3-1.4c0.8-0.9,1.1-2.1,1.1-3.6V24.3h3.1v12.2c0,1.6-0.3,3-0.9,4.2s-1.5,2.2-2.6,2.8
	c-1.1,0.7-2.4,1-4,1C84.3,44.6,83,44.2,81.8,43.6z"/>
<path class="st0" d="M103,24.3h3.1v16.8h8.5v3H103V24.3z"/>
<path class="st0" d="M126.1,43.6c-1.1-0.7-2-1.6-2.6-2.8s-0.9-2.6-0.9-4.2V24.3h3.1v12.4c0,1.5,0.4,2.6,1.1,3.6
	c0.8,0.9,1.9,1.4,3.3,1.4s2.5-0.4,3.3-1.4c0.8-0.9,1.1-2.1,1.1-3.6V24.3h3.1v12.2c0,1.6-0.3,3-0.9,4.2c-0.6,1.2-1.5,2.2-2.6,2.8
	c-1.1,0.7-2.4,1-4,1C128.6,44.6,127.3,44.2,126.1,43.6z"/>
<path class="st0" d="M147.3,24.3h3.1v9.4h0.2l8-9.4h3.8v0.2l-7.2,8.3L163,44v0.2h-3.8l-6.2-8.9l-2.7,3.1v5.8h-3.1V24.3H147.3z"/>
<path class="st0" d="M174.2,43.6c-1.1-0.7-2-1.6-2.6-2.8s-0.9-2.6-0.9-4.2V24.3h3.1v12.4c0,1.5,0.4,2.6,1.1,3.6
	c0.8,0.9,1.9,1.4,3.3,1.4c1.4,0,2.5-0.4,3.3-1.4c0.8-0.9,1.1-2.1,1.1-3.6V24.3h3.1v12.2c0,1.6-0.3,3-0.9,4.2
	c-0.6,1.2-1.5,2.2-2.6,2.8c-1.1,0.7-2.4,1-4,1C176.6,44.6,175.3,44.2,174.2,43.6z"/>
<path class="st0" d="M195.3,24.3h4.2l5.7,15h0.2l5.7-15h4.2v19.8h-3.1v-11l0.2-3.6h-0.2l-5.7,14.7H204l-5.7-14.7h-0.2l0.2,3.6v11.1
	h-3.1V24.3H195.3z"/>
<path class="st0" d="M225.3,24.3h7.4c1,0,2,0.2,2.9,0.7s1.6,1.1,2.1,1.9s0.8,1.7,0.8,2.7s-0.2,1.8-0.7,2.5c-0.5,0.7-1.1,1.3-1.9,1.6
	V34c1,0.3,1.8,0.9,2.4,1.7c0.6,0.8,0.9,1.8,0.9,2.8c0,1.1-0.3,2.1-0.8,2.9c-0.6,0.9-1.3,1.5-2.3,2c-0.9,0.5-2,0.7-3.1,0.7h-7.8V24.3
	H225.3z M232.6,32.6c0.9,0,1.6-0.3,2.1-0.8c0.5-0.6,0.8-1.2,0.8-1.9c0-0.7-0.3-1.3-0.8-1.9c-0.5-0.5-1.2-0.8-2.1-0.8h-4.3v5.5h4.3
	V32.6z M233.1,41.3c0.9,0,1.7-0.3,2.3-0.9c0.6-0.6,0.8-1.3,0.8-2c0-0.8-0.3-1.5-0.9-2.1c-0.6-0.6-1.4-0.9-2.3-0.9h-4.6v5.9H233.1z"
	/>
<path class="st0" d="M253.5,24.3h3.5l7.4,19.8H261l-1.8-5.1h-8l-1.8,5.1H246L253.5,24.3z M258.3,36.2l-2.1-5.9l-0.8-2.3h-0.2
	l-0.8,2.3l-2.1,5.9H258.3z"/>
<g>
	<g>
		<path class="st2" d="M63.5,47.1h-7.8c-1.7,0-3-1.3-3-3V24.3c0-1.7,1.3-3,3-3h7.4c1.5,0,3,0.3,4.3,1c1.3,0.7,2.4,1.7,3.3,2.9
			c0.9,1.3,1.3,2.8,1.3,4.3c0,1.5-0.4,2.8-1.1,4c0.1,0.1,0.2,0.2,0.2,0.3c1,1.3,1.5,2.9,1.5,4.7c0,1.7-0.5,3.2-1.3,4.6
			c-0.8,1.3-2,2.3-3.4,3C66.6,46.8,65.1,47.1,63.5,47.1z M63.6,38.4L63.6,38.4L63.6,38.4z"/>
		<path class="st2" d="M85.8,47.6c-2,0-3.8-0.5-5.4-1.4l0,0c-1.6-1-2.9-2.3-3.8-4c-0.8-1.6-1.3-3.5-1.3-5.6V24.3c0-1.7,1.3-3,3-3
			h3.1c1.7,0,3,1.3,3,3v12.4c0,1.1,0.3,1.5,0.4,1.6s0.3,0.3,1,0.3s0.9-0.2,1-0.3c0.3-0.4,0.4-0.9,0.4-1.7V24.3c0-1.7,1.3-3,3-3h3.1
			c1.7,0,3,1.3,3,3v12.2c0,2.1-0.4,3.9-1.2,5.5c-0.9,1.7-2.1,3.1-3.7,4.1C89.7,47.1,87.8,47.6,85.8,47.6z"/>
		<path class="st2" d="M114.5,47.1H103c-1.7,0-3-1.3-3-3V24.3c0-1.7,1.3-3,3-3h3.1c1.7,0,3,1.3,3,3v13.8h5.5c1.7,0,3,1.3,3,3v3
			C117.5,45.8,116.2,47.1,114.5,47.1z"/>
		<path class="st2" d="M130.1,47.6c-2,0-3.8-0.5-5.4-1.4l0,0c-1.6-1-2.9-2.3-3.8-4c-0.8-1.6-1.3-3.5-1.3-5.6V24.3c0-1.7,1.3-3,3-3
			h3.1c1.7,0,3,1.3,3,3v12.4c0,1.1,0.3,1.5,0.4,1.6c0.1,0.1,0.3,0.3,1,0.3s0.9-0.2,1-0.3s0.4-0.5,0.4-1.7V24.3c0-1.7,1.3-3,3-3h3.1
			c1.7,0,3,1.3,3,3v12.2c0,2.1-0.4,3.9-1.2,5.5c-0.9,1.7-2.1,3.1-3.7,4.1C134,47.1,132.1,47.6,130.1,47.6z"/>
		<path class="st2" d="M163,47.1h-3.8c-1,0-1.9-0.5-2.5-1.3l-3.4-4.9v3.2c0,1.7-1.3,3-3,3h-3.1c-1.7,0-3-1.3-3-3V24.3
			c0-1.7,1.3-3,3-3h3.1c1.7,0,3,1.3,3,3v1.5l2.9-3.4c0.6-0.7,1.4-1.1,2.3-1.1h3.8c1.7,0,3,1.3,3,3v0.2c0,0.7-0.3,1.4-0.7,2l-5.7,6.6
			l6.5,9.2c0.4,0.5,0.6,1.1,0.6,1.7v0.2C166,45.8,164.7,47.1,163,47.1z"/>
		<path class="st2" d="M178.1,47.6c-2,0-3.8-0.5-5.4-1.4l0,0c-1.6-1-2.9-2.3-3.8-4c-0.8-1.6-1.3-3.5-1.3-5.6V24.3c0-1.7,1.3-3,3-3
			h3.1c1.7,0,3,1.3,3,3v12.4c0,1.1,0.3,1.5,0.4,1.6c0.1,0.1,0.3,0.3,1,0.3s0.9-0.2,1-0.3s0.4-0.5,0.4-1.7V24.3c0-1.7,1.3-3,3-3h3.1
			c1.7,0,3,1.3,3,3v12.2c0,2.1-0.4,3.9-1.2,5.5c-0.9,1.7-2.1,3.1-3.7,4.1C182,47.1,180.2,47.6,178.1,47.6z"/>
		<path class="st2" d="M215.3,47.1h-3.1c-1.3,0-2.4-0.8-2.8-2v0.1c-0.4,1.2-1.6,1.9-2.8,1.9H204c-1.2,0-2.4-0.8-2.8-1.9v-0.1
			c-0.4,1.2-1.5,2-2.8,2h-3.1c-1.7,0-3-1.3-3-3V24.3c0-1.7,1.3-3,3-3h4.2c1.2,0,2.4,0.8,2.8,1.9l3,7.8l3-7.8
			c0.4-1.2,1.6-1.9,2.8-1.9h4.2c1.7,0,3,1.3,3,3v19.8C218.3,45.8,216.9,47.1,215.3,47.1z"/>
		<path class="st2" d="M233.1,47.1h-7.8c-1.7,0-3-1.3-3-3V24.3c0-1.7,1.3-3,3-3h7.4c1.5,0,3,0.3,4.3,1s2.4,1.7,3.3,2.9
			c0.9,1.3,1.3,2.8,1.3,4.3c0,1.5-0.4,2.8-1.1,4c0.1,0.1,0.2,0.2,0.2,0.3c1,1.3,1.5,2.9,1.5,4.7c0,1.7-0.5,3.2-1.3,4.6
			c-0.8,1.3-2,2.3-3.4,3C236.2,46.8,234.7,47.1,233.1,47.1z M233.2,38.4L233.2,38.4L233.2,38.4L233.2,38.4z"/>
	</g>
	<path class="st2" d="M264.5,47.1h-3.4c-1.3,0-2.4-0.8-2.8-2l-1.1-3h-3.7l-1.1,3.1c-0.4,1.2-1.6,2-2.8,2h-3.4c-1,0-1.9-0.5-2.5-1.3
		s-0.7-1.8-0.3-2.8l7.4-19.8c0.4-1.2,1.6-1.9,2.8-1.9h3.5c1.3,0,2.4,0.8,2.8,1.9l7.4,19.8c0.3,0.9,0.2,2-0.3,2.8
		C266.4,46.7,265.5,47.1,264.5,47.1z"/>
</g>
<path class="st0" d="M55.7,24.3h7.4c1,0,2,0.2,2.9,0.7c0.9,0.5,1.6,1.1,2.1,1.9s0.8,1.7,0.8,2.7s-0.2,1.8-0.7,2.5
	c-0.5,0.7-1.1,1.3-1.9,1.6V34c1,0.3,1.8,0.9,2.4,1.7s0.9,1.8,0.9,2.8c0,1.1-0.3,2.1-0.8,2.9c-0.6,0.9-1.3,1.5-2.3,2
	c-0.9,0.5-2,0.7-3.1,0.7h-7.8L55.7,24.3L55.7,24.3z M63,32.6c0.9,0,1.6-0.3,2.1-0.8c0.5-0.6,0.8-1.2,0.8-1.9c0-0.7-0.3-1.3-0.8-1.9
	c-0.5-0.5-1.2-0.8-2.1-0.8h-4.3v5.5H63V32.6z M63.5,41.3c0.9,0,1.7-0.3,2.3-0.9c0.6-0.6,0.8-1.3,0.8-2c0-0.8-0.3-1.5-0.9-2.1
	s-1.4-0.9-2.3-0.9h-4.6v5.9H63.5z"/>
<path class="st0" d="M63.5,44.6h-7.8c-0.3,0-0.5-0.2-0.5-0.5V24.3c0-0.3,0.2-0.5,0.5-0.5h7.4c1.1,0,2.2,0.3,3.1,0.7
	c1,0.5,1.7,1.2,2.3,2.1c0.6,0.9,0.9,1.9,0.9,3s-0.3,2-0.8,2.8c-0.4,0.6-0.8,1-1.4,1.4c0.7,0.4,1.4,0.9,1.9,1.6c0.7,0.9,1,2,1,3.1
	c0,1.2-0.3,2.2-0.9,3.2c-0.6,0.9-1.4,1.6-2.5,2.2C65.8,44.4,64.7,44.6,63.5,44.6z M56.2,43.6h7.3c1,0,2-0.2,2.9-0.7
	c0.9-0.4,1.6-1,2.1-1.8s0.8-1.6,0.8-2.6S69,36.7,68.5,36c-0.6-0.7-1.3-1.3-2.2-1.6c-0.2-0.1-0.3-0.3-0.3-0.5v-0.2
	c0-0.2,0.1-0.4,0.3-0.5c0.7-0.3,1.3-0.8,1.7-1.5c0.4-0.6,0.6-1.4,0.6-2.3s-0.2-1.7-0.7-2.4c-0.5-0.7-1.1-1.3-2-1.7
	c-0.8-0.4-1.7-0.6-2.7-0.6h-6.9L56.2,43.6L56.2,43.6z M63.5,41.8h-4.7c-0.3,0-0.5-0.2-0.5-0.5v-5.9c0-0.3,0.2-0.5,0.5-0.5h4.6
	c1.1,0,2,0.3,2.7,1c0.7,0.7,1,1.5,1,2.4s-0.3,1.7-1,2.4C65.5,41.4,64.6,41.8,63.5,41.8z M59.3,40.8h4.2c0.8,0,1.4-0.2,1.9-0.7
	s0.7-1.1,0.7-1.7c0-0.7-0.2-1.2-0.7-1.7s-1.1-0.7-2-0.7h-4.1C59.3,36,59.3,40.8,59.3,40.8z M63,33.1h-4.2c-0.3,0-0.5-0.2-0.5-0.5
	v-5.5c0-0.3,0.2-0.5,0.5-0.5h4.3c1,0,1.8,0.3,2.4,1c0.6,0.6,0.9,1.4,0.9,2.2c0,0.9-0.3,1.6-1,2.3C64.9,32.8,64.1,33.1,63,33.1z
	 M59.3,32.1H63c0.8,0,1.3-0.2,1.8-0.7s0.7-1,0.7-1.6s-0.2-1.1-0.6-1.5s-1-0.7-1.7-0.7h-3.8v4.5H59.3z"/>
<path class="st0" d="M81.8,43.6c-1.1-0.7-2-1.6-2.6-2.8s-0.9-2.6-0.9-4.2V24.3h3.1v12.4c0,1.5,0.4,2.6,1.1,3.6
	c0.8,0.9,1.9,1.4,3.3,1.4s2.5-0.4,3.3-1.4c0.8-0.9,1.1-2.1,1.1-3.6V24.3h3.1v12.2c0,1.6-0.3,3-0.9,4.2s-1.5,2.2-2.6,2.8
	c-1.1,0.7-2.4,1-4,1C84.3,44.6,83,44.2,81.8,43.6z"/>
<path class="st0" d="M85.8,45.1c-1.6,0-3-0.4-4.2-1.1l0,0c-1.2-0.7-2.2-1.7-2.8-3c-0.7-1.3-1-2.8-1-4.5V24.3c0-0.3,0.2-0.5,0.5-0.5
	h3.1c0.3,0,0.5,0.2,0.5,0.5v12.4c0,1.4,0.3,2.4,1,3.2s1.6,1.2,2.9,1.2s2.2-0.4,2.9-1.2c0.7-0.8,1-1.9,1-3.3V24.3
	c0-0.3,0.2-0.5,0.5-0.5h3.1c0.3,0,0.5,0.2,0.5,0.5v12.2c0,1.7-0.3,3.1-1,4.4c-0.6,1.3-1.6,2.3-2.8,3C88.8,44.7,87.4,45.1,85.8,45.1z
	 M82.1,43.2c1.1,0.6,2.3,0.9,3.7,0.9c1.4,0,2.7-0.3,3.7-0.9c1-0.6,1.8-1.5,2.4-2.6s0.9-2.5,0.9-4V24.8h-2.1v11.9
	c0,1.6-0.4,2.9-1.3,3.9c-0.8,1-2.1,1.5-3.6,1.5c-1.6,0-2.8-0.5-3.7-1.5c-0.8-1-1.3-2.3-1.3-3.9V24.8h-2.1v11.7c0,1.5,0.3,2.9,0.9,4
	C80.2,41.7,81.1,42.5,82.1,43.2z"/>
<path class="st0" d="M103,24.3h3.1v16.8h8.5v3H103V24.3z"/>
<path class="st0" d="M114.5,44.6H103c-0.3,0-0.5-0.2-0.5-0.5V24.3c0-0.3,0.2-0.5,0.5-0.5h3.1c0.3,0,0.5,0.2,0.5,0.5v16.3h8
	c0.3,0,0.5,0.2,0.5,0.5v3C115,44.4,114.8,44.6,114.5,44.6z M103.5,43.6H114v-2h-8c-0.3,0-0.5-0.2-0.5-0.5V24.8h-2.1L103.5,43.6
	L103.5,43.6z"/>
<path class="st0" d="M126.1,43.6c-1.1-0.7-2-1.6-2.6-2.8s-0.9-2.6-0.9-4.2V24.3h3.1v12.4c0,1.5,0.4,2.6,1.1,3.6
	c0.8,0.9,1.9,1.4,3.3,1.4s2.5-0.4,3.3-1.4c0.8-0.9,1.1-2.1,1.1-3.6V24.3h3.1v12.2c0,1.6-0.3,3-0.9,4.2c-0.6,1.2-1.5,2.2-2.6,2.8
	c-1.1,0.7-2.4,1-4,1C128.6,44.6,127.3,44.2,126.1,43.6z"/>
<path class="st0" d="M130.1,45.1c-1.6,0-3-0.4-4.2-1.1l0,0c-1.2-0.7-2.2-1.7-2.8-3c-0.7-1.3-1-2.8-1-4.5V24.3c0-0.3,0.2-0.5,0.5-0.5
	h3.1c0.3,0,0.5,0.2,0.5,0.5v12.4c0,1.4,0.3,2.4,1,3.2s1.6,1.2,2.9,1.2s2.2-0.4,2.9-1.2s1-1.9,1-3.3V24.3c0-0.3,0.2-0.5,0.5-0.5h3.1
	c0.3,0,0.5,0.2,0.5,0.5v12.2c0,1.7-0.3,3.1-1,4.4c-0.6,1.3-1.6,2.3-2.8,3C133.1,44.7,131.7,45.1,130.1,45.1z M126.4,43.2
	c1.1,0.6,2.3,0.9,3.7,0.9c1.4,0,2.7-0.3,3.7-0.9c1-0.6,1.8-1.5,2.4-2.6c0.6-1.1,0.9-2.5,0.9-4V24.8H135v11.9c0,1.6-0.4,2.9-1.3,3.9
	c-0.8,1-2.1,1.5-3.6,1.5c-1.6,0-2.8-0.5-3.7-1.5c-0.8-1-1.3-2.3-1.3-3.9V24.8H123v11.7c0,1.5,0.3,2.9,0.9,4
	C124.5,41.7,125.3,42.5,126.4,43.2z"/>
<path class="st0" d="M147.3,24.3h3.1v9.4h0.2l8-9.4h3.8v0.2l-7.2,8.3L163,44v0.2h-3.8l-6.2-8.9l-2.7,3.1v5.8h-3.1V24.3H147.3z"/>
<path class="st0" d="M163,44.6h-3.8c-0.2,0-0.3-0.1-0.4-0.2l-5.8-8.3l-2.1,2.5v5.6c0,0.3-0.2,0.5-0.5,0.5h-3.1
	c-0.3,0-0.5-0.2-0.5-0.5V24.3c0-0.3,0.2-0.5,0.5-0.5h3.1c0.3,0,0.5,0.2,0.5,0.5v8.2l7.3-8.6c0.1-0.1,0.2-0.2,0.4-0.2h3.8
	c0.3,0,0.5,0.2,0.5,0.5v0.2c0,0.1,0,0.2-0.1,0.3l-7,8.1l7.7,10.8c0.1,0.1,0.1,0.2,0.1,0.3v0.2C163.5,44.4,163.3,44.6,163,44.6z
	 M159.5,43.6h2.7l-7.4-10.5c-0.1-0.2-0.1-0.4,0-0.6l6.7-7.7h-2.7l-7.9,9.2c-0.1,0.1-0.2,0.2-0.4,0.2h-0.2c-0.3,0-0.5-0.2-0.5-0.5
	v-8.9h-2.1v18.8h2.1v-5.3c0-0.1,0-0.2,0.1-0.3l2.7-3.1c0.1-0.1,0.2-0.2,0.4-0.2s0.3,0.1,0.4,0.2L159.5,43.6z"/>
<path class="st0" d="M174.2,43.6c-1.1-0.7-2-1.6-2.6-2.8s-0.9-2.6-0.9-4.2V24.3h3.1v12.4c0,1.5,0.4,2.6,1.1,3.6
	c0.8,0.9,1.9,1.4,3.3,1.4c1.4,0,2.5-0.4,3.3-1.4c0.8-0.9,1.1-2.1,1.1-3.6V24.3h3.1v12.2c0,1.6-0.3,3-0.9,4.2
	c-0.6,1.2-1.5,2.2-2.6,2.8c-1.1,0.7-2.4,1-4,1C176.6,44.6,175.3,44.2,174.2,43.6z"/>
<path class="st0" d="M178.1,45.1c-1.6,0-3-0.4-4.2-1.1l0,0c-1.2-0.7-2.2-1.7-2.8-3c-0.7-1.3-1-2.8-1-4.5V24.3c0-0.3,0.2-0.5,0.5-0.5
	h3.1c0.3,0,0.5,0.2,0.5,0.5v12.4c0,1.4,0.3,2.4,1,3.2s1.6,1.2,2.9,1.2c1.3,0,2.2-0.4,2.9-1.2s1-1.9,1-3.3V24.3
	c0-0.3,0.2-0.5,0.5-0.5h3.1c0.3,0,0.5,0.2,0.5,0.5v12.2c0,1.7-0.3,3.1-1,4.4c-0.6,1.3-1.6,2.3-2.8,3
	C181.1,44.7,179.7,45.1,178.1,45.1z M174.4,43.2c1.1,0.6,2.3,0.9,3.7,0.9s2.7-0.3,3.7-0.9c1-0.6,1.8-1.5,2.4-2.6
	c0.6-1.1,0.9-2.5,0.9-4V24.8H183v11.9c0,1.6-0.4,2.9-1.3,3.9c-0.8,1-2.1,1.5-3.6,1.5c-1.6,0-2.8-0.5-3.7-1.5c-0.8-1-1.3-2.3-1.3-3.9
	V24.8H171v11.7c0,1.5,0.3,2.9,0.9,4C172.6,41.7,173.4,42.5,174.4,43.2L174.4,43.2z"/>
<path class="st0" d="M195.3,24.3h4.2l5.7,15h0.2l5.7-15h4.2v19.8h-3.1v-11l0.2-3.6h-0.2l-5.7,14.7H204l-5.7-14.7h-0.2l0.2,3.6v11.1
	h-3.1V24.3H195.3z"/>
<path class="st0" d="M215.3,44.6h-3.1c-0.3,0-0.5-0.2-0.5-0.5V32L207,44.3c-0.1,0.2-0.3,0.3-0.5,0.3H204c-0.2,0-0.4-0.1-0.5-0.3
	L198.8,32v1v11.1c0,0.3-0.2,0.5-0.5,0.5h-3.1c-0.3,0-0.5-0.2-0.5-0.5V24.3c0-0.3,0.2-0.5,0.5-0.5h4.2c0.2,0,0.4,0.1,0.5,0.3l5.3,14
	l5.3-14c0.1-0.2,0.3-0.3,0.5-0.3h4.2c0.3,0,0.5,0.2,0.5,0.5v19.8C215.8,44.4,215.5,44.6,215.3,44.6z M212.7,43.6h2.1V24.8h-3.4
	l-5.6,14.7c-0.1,0.2-0.3,0.3-0.5,0.3h-0.2c-0.2,0-0.4-0.1-0.5-0.3L199,24.8h-3.4v18.8h2.1V33.1l-0.2-3.5c0-0.1,0-0.3,0.1-0.4
	s0.2-0.2,0.4-0.2h0.2c0.2,0,0.4,0.1,0.5,0.3l5.5,14.3h1.8l5.5-14.3c0.1-0.2,0.3-0.3,0.5-0.3h0.2c0.1,0,0.3,0.1,0.4,0.2
	c0.1,0.1,0.1,0.2,0.1,0.4l-0.2,3.6L212.7,43.6z"/>
<path class="st0" d="M225.3,24.3h7.4c1,0,2,0.2,2.9,0.7s1.6,1.1,2.1,1.9s0.8,1.7,0.8,2.7s-0.2,1.8-0.7,2.5c-0.5,0.7-1.1,1.3-1.9,1.6
	V34c1,0.3,1.8,0.9,2.4,1.7c0.6,0.8,0.9,1.8,0.9,2.8c0,1.1-0.3,2.1-0.8,2.9c-0.6,0.9-1.3,1.5-2.3,2c-0.9,0.5-2,0.7-3.1,0.7h-7.8V24.3
	H225.3z M232.6,32.6c0.9,0,1.6-0.3,2.1-0.8c0.5-0.6,0.8-1.2,0.8-1.9c0-0.7-0.3-1.3-0.8-1.9c-0.5-0.5-1.2-0.8-2.1-0.8h-4.3v5.5h4.3
	V32.6z M233.1,41.3c0.9,0,1.7-0.3,2.3-0.9c0.6-0.6,0.8-1.3,0.8-2c0-0.8-0.3-1.5-0.9-2.1c-0.6-0.6-1.4-0.9-2.3-0.9h-4.6v5.9H233.1z"
	/>
<path class="st0" d="M233.1,44.6h-7.8c-0.3,0-0.5-0.2-0.5-0.5V24.3c0-0.3,0.2-0.5,0.5-0.5h7.4c1.1,0,2.2,0.3,3.1,0.7
	c1,0.5,1.7,1.2,2.3,2.1s0.9,1.9,0.9,3s-0.3,2-0.8,2.8c-0.4,0.6-0.8,1-1.4,1.4c0.7,0.4,1.4,0.9,1.9,1.6c0.7,0.9,1,2,1,3.1
	c0,1.2-0.3,2.2-0.9,3.2c-0.6,0.9-1.4,1.6-2.5,2.2C235.4,44.4,234.3,44.6,233.1,44.6z M225.8,43.6h7.3c1,0,2-0.2,2.9-0.7
	c0.9-0.4,1.6-1,2.1-1.8s0.8-1.6,0.8-2.6s-0.3-1.8-0.8-2.5c-0.6-0.7-1.3-1.3-2.2-1.6c-0.2-0.1-0.3-0.3-0.3-0.5v-0.2
	c0-0.2,0.1-0.4,0.3-0.5c0.7-0.3,1.3-0.8,1.7-1.5c0.4-0.6,0.6-1.4,0.6-2.3s-0.2-1.7-0.7-2.4c-0.5-0.7-1.1-1.3-2-1.7
	c-0.8-0.4-1.7-0.6-2.7-0.6h-6.9v18.9H225.8z M233.1,41.8h-4.7c-0.3,0-0.5-0.2-0.5-0.5v-5.9c0-0.3,0.2-0.5,0.5-0.5h4.6
	c1.1,0,2,0.3,2.7,1s1,1.5,1,2.4s-0.3,1.7-1,2.4C235.1,41.4,234.2,41.8,233.1,41.8z M228.9,40.8h4.2c0.8,0,1.4-0.2,1.9-0.7
	s0.7-1.1,0.7-1.7c0-0.7-0.2-1.2-0.7-1.7s-1.1-0.7-2-0.7h-4.1L228.9,40.8L228.9,40.8z M232.6,33.1h-4.2c-0.3,0-0.5-0.2-0.5-0.5v-5.5
	c0-0.3,0.2-0.5,0.5-0.5h4.3c1,0,1.8,0.3,2.4,1c0.6,0.6,0.9,1.4,0.9,2.2c0,0.9-0.3,1.6-1,2.3C234.5,32.8,233.7,33.1,232.6,33.1z
	 M228.9,32.1h3.7c0.8,0,1.3-0.2,1.8-0.7s0.7-1,0.7-1.6s-0.2-1.1-0.6-1.5c-0.4-0.4-1-0.7-1.7-0.7H229L228.9,32.1L228.9,32.1z"/>
<path class="st0" d="M253.5,24.3h3.5l7.4,19.8H261l-1.8-5.1h-8l-1.8,5.1H246L253.5,24.3z M258.3,36.2l-2.1-5.9l-0.8-2.3h-0.2
	l-0.8,2.3l-2.1,5.9H258.3z"/>
<path class="st0" d="M264.5,44.6h-3.4c-0.2,0-0.4-0.1-0.5-0.3l-1.7-4.7h-7.3l-1.7,4.7c-0.1,0.2-0.3,0.3-0.5,0.3H246
	c-0.2,0-0.3-0.1-0.4-0.2s-0.1-0.3-0.1-0.5l7.4-19.8c0.1-0.2,0.3-0.3,0.5-0.3h3.5c0.2,0,0.4,0.1,0.5,0.3L265,44
	c0.1,0.2,0,0.3-0.1,0.5S264.7,44.6,264.5,44.6z M261.4,43.6h2.4l-7.1-18.8h-2.8l-7.1,18.8h2.4l1.7-4.7c0.1-0.2,0.3-0.3,0.5-0.3h8
	c0.2,0,0.4,0.1,0.5,0.3L261.4,43.6z M258.3,36.7h-5.9c-0.2,0-0.3-0.1-0.4-0.2s-0.1-0.3-0.1-0.5l2.9-8.2c0.1-0.2,0.3-0.3,0.5-0.3h0.2
	c0.2,0,0.4,0.1,0.5,0.3l0.8,2.3l2.1,5.9c0.1,0.2,0,0.3-0.1,0.5S258.4,36.7,258.3,36.7z M253.1,35.7h4.5l-2.2-6.4l-0.4,1.1
	L253.1,35.7z"/>
<path class="st1" d="M31,62.5c-0.9,0-1.8-0.2-2.6-0.6c-12.2-6.1-20.2-3.3-20.5-3.2c-1.8,0.7-3.9,0.4-5.5-0.8s-2.5-3-2.4-5
	c1.7-28.6,15.8-44,16.4-44.7c1.8-1.9,4.5-2.4,6.8-1.2s3.6,3.7,3.1,6.2c-2.4,13.3,6.2,33.9,9.8,40.8c1.2,2.2,0.7,4.9-1,6.7
	C34,61.9,32.5,62.5,31,62.5z M13.3,46.3c2.1,0,4.5,0.2,7.1,0.7c-1.6-4.3-3.3-9.5-4.5-14.8c-1.5,4-2.8,8.7-3.7,14.2
	C12.7,46.3,13,46.3,13.3,46.3z"/>
<path class="st1" d="M41.8,64.6c-1.7,0-3.4-0.8-4.6-2.2c0,0-2.2-2.5-6.2-3.2c-1.8-0.3-3.3-1.4-4.1-3c-0.3-0.5-6.9-13-9.2-26.1
	c-0.1-0.8-0.1-1.6,0.1-2.3c0.4-1.9,4.4-18.6,11.6-26C31,0,33.6-0.5,35.8,0.5C38,1.4,39.4,3.6,39.3,6c0,0.3-1,27.5,7.9,50.7
	c1,2.7,0,5.7-2.5,7.1C43.8,64.4,42.8,64.6,41.8,64.6z"/>
<path class="st1" d="M41.8,59.6c-2.5,0-4.8-1.7-5.6-4.2C36,54.8,31.8,39.9,31,32.6c-0.1-0.7,0-1.5,0.2-2.2c0.4-1.3,2.4-7.8,5.4-11.5
	c1.5-1.8,3.9-2.6,6.1-1.9c2.2,0.7,3.9,2.6,4.1,4.9c0.6,5.8,3.1,22.2,7,29c1.3,2.3,1,5.1-0.9,7c-1.7,1.7-4.3,2.2-6.5,1.2
	c-0.2-0.1-1.3-0.2-3.1,0.3C42.9,59.5,42.4,59.6,41.8,59.6z M46.1,58.9L46.1,58.9L46.1,58.9z M46.1,58.9L46.1,58.9L46.1,58.9z
	 M46.1,58.8C46.1,58.8,46.1,58.9,46.1,58.8C46.1,58.9,46.1,58.8,46.1,58.8z"/>
<path class="st3" d="M20.7,12.2c0,0-13.3,14.2-14.9,41c0,0,10.1-4.1,25.2,3.4C31,56.7,17.3,30.4,20.7,12.2z"/>
<path class="st2" d="M31,60.6c-0.6,0-1.2-0.1-1.7-0.4c-13.1-6.6-21.7-3.4-22-3.3c-1.2,0.5-2.6,0.3-3.7-0.5s-1.7-2-1.6-3.3
	c1.6-28,15.3-42.9,15.8-43.5c1.2-1.3,3-1.6,4.6-0.8c1.5,0.8,2.4,2.5,2.1,4.1c-3.1,16.7,9.8,41.7,9.9,42c0.8,1.5,0.5,3.3-0.7,4.5
	C33,60.2,32,60.6,31,60.6z M13.3,48.3c2.9,0,6.3,0.4,10.3,1.4C21,43.4,18,34.4,16.8,25.4c-2.7,5.6-5.5,13.3-6.7,23
	C11.1,48.4,12.1,48.3,13.3,48.3z"/>
<path class="st3" d="M33.5,5.8c0,0-1.2,28.4,8.3,53c0,0-3.3-4.2-9.8-5.3c0,0-6.4-12.1-8.7-24.4C23.4,29.1,27.3,12.2,33.5,5.8z"/>
<path class="st2" d="M41.8,62.7c-1.1,0-2.3-0.5-3-1.5c-0.1-0.1-2.6-3.1-7.4-3.9c-1.2-0.2-2.2-0.9-2.8-2c-0.3-0.5-6.7-12.8-9-25.5
	c-0.1-0.5-0.1-1,0-1.6c0.4-1.8,4.3-18.1,11.1-25.1C31.9,2,33.6,1.6,35,2.2c1.5,0.6,2.4,2.1,2.3,3.7c0,0.3-1.1,27.9,8.1,51.5
	c0.7,1.8,0,3.8-1.7,4.8C43.2,62.5,42.5,62.7,41.8,62.7z M34.7,50.1c0.1,0,0.1,0,0.2,0.1c-3-10.8-4.3-21.5-4.9-29.7
	c-1.2,3.4-2.1,6.6-2.6,8.7C29.1,38,33,46.7,34.7,50.1z"/>
<path class="st3" d="M41.2,22.5c0,0,2.3,22,7.8,31.3c0,0-2.3-1.3-7.1,0c0,0-4.3-15-5-21.8C36.8,32,38.7,25.5,41.2,22.5z"/>
<path class="st2" d="M41.8,57.7c-1.7,0-3.2-1.1-3.7-2.8c-0.2-0.6-4.4-15.4-5.1-22.4c-0.1-0.5,0-1,0.1-1.5c0.2-0.7,2.2-7.3,5-10.8
	c1-1.2,2.6-1.7,4.1-1.3c1.5,0.4,2.6,1.7,2.7,3.3c0.6,5.9,3.1,22.7,7.3,29.7c0.9,1.5,0.6,3.4-0.6,4.7c-1.2,1.2-3.1,1.5-4.6,0.6
	c0.1,0-0.3-0.1-1.2-0.1c-0.7,0-1.7,0.1-3,0.5C42.5,57.6,42.2,57.7,41.8,57.7z"/>
<path class="st0" d="M20.7,12.2c0,0-13.3,14.2-14.9,41c0,0,10.1-4.1,25.2,3.4C31,56.7,17.3,30.4,20.7,12.2z"/>
<path class="st0" d="M33.5,5.8c0,0-1.2,28.4,8.3,53c0,0-3.3-4.2-9.8-5.3c0,0-6.4-12.1-8.7-24.4C23.4,29.1,27.3,12.2,33.5,5.8z"/>
<path class="st0" d="M41.2,22.5c0,0,2.3,22,7.8,31.3c0,0-2.3-1.3-7.1,0c0,0-4.3-15-5-21.8C36.8,32,38.7,25.5,41.2,22.5z"/>
<path class="st4" d="M19.4,15.1c0,0-10.1,11.9-12.7,36.4c0,0,0.8-0.4,1.5-0.4c0,0,1.6-20.2,10.4-31.9L19.4,15.1z"/>
<path class="st4" d="M32.5,8.7c0,0-0.5,2.2,0,3.5c0,0-5.5,10.5-6.8,19.5c0,0-0.4-1.5-0.8-3.4C24.9,28.3,28.1,15.2,32.5,8.7z"/>
<path class="st4" d="M40.2,25.8c0,0,0,1,0.3,1.9c0,0-2.2,4.2-2.2,6.8c0,0-0.2-1.4-0.4-2.4C38,32.1,39.1,28,40.2,25.8z"/>
</svg>
